<svg width="859" height="326" viewBox="0 0 859 326" fill="none" xmlns="http://www.w3.org/2000/svg">
<mask id="path-1-inside-1_1279_1775" fill="white">
<path d="M859 286.496L671.5 285.5L635.5 326H65.5L29.5 285.5L0 285.656V23H275.5V63.5H583.5V23H859V286.496Z"/>
</mask>
<path d="M859 286.496L671.5 285.5L635.5 326H65.5L29.5 285.5L0 285.656V23H275.5V63.5H583.5V23H859V286.496Z" fill="url(#paint0_linear_1279_1775)" fill-opacity="0.25"/>
<path d="M859 286.496L858.987 288.996L861.5 289.009V286.496H859ZM671.5 285.5L671.513 283L670.383 282.994L669.631 283.839L671.5 285.5ZM635.5 326V328.5H636.623L637.369 327.661L635.5 326ZM65.5 326L63.6315 327.661L64.3773 328.5H65.5V326ZM29.5 285.5L31.3685 283.839L30.6174 282.994L29.4868 283L29.5 285.5ZM0 285.656H-2.5V288.17L0.0132413 288.156L0 285.656ZM0 23V20.5H-2.5V23H0ZM275.5 23H278V20.5H275.5V23ZM275.5 63.5H273V66H275.5V63.5ZM583.5 63.5V66H586V63.5H583.5ZM583.5 23V20.5H581V23H583.5ZM859 23H861.5V20.5H859V23ZM859 286.496L859.013 283.996L671.513 283L671.5 285.5L671.487 288L858.987 288.996L859 286.496ZM671.5 285.5L669.631 283.839L633.631 324.339L635.5 326L637.369 327.661L673.369 287.161L671.5 285.5ZM635.5 326V323.5H65.5V326V328.5H635.5V326ZM65.5 326L67.3685 324.339L31.3685 283.839L29.5 285.5L27.6315 287.161L63.6315 327.661L65.5 326ZM29.5 285.5L29.4868 283L-0.0132413 283.156L0 285.656L0.0132413 288.156L29.5132 288L29.5 285.5ZM0 285.656H2.5V23H0H-2.5V285.656H0ZM0 23V25.5H275.5V23V20.5H0V23ZM275.5 23H273V63.5H275.5H278V23H275.5ZM275.5 63.5V66H583.5V63.5V61H275.5V63.5ZM583.5 63.5H586V23H583.5H581V63.5H583.5ZM583.5 23V25.5H859V23V20.5H583.5V23ZM859 23H856.5V286.496H859H861.5V23H859Z" fill="url(#paint1_linear_1279_1775)" mask="url(#path-1-inside-1_1279_1775)"/>
<mask id="path-3-inside-2_1279_1775" fill="white">
<path d="M859 286.496L671.5 285.5L635.5 326H65.5L29.5 285.5L0 285.656V23H275.5V63.5H583.5V23H859V286.496Z"/>
</mask>
<path d="M859 286.496L671.5 285.5L635.5 326H65.5L29.5 285.5L0 285.656V23H275.5V63.5H583.5V23H859V286.496Z" fill="url(#paint2_linear_1279_1775)" fill-opacity="0.25"/>
<path d="M859 286.496L858.987 288.996L861.5 289.009V286.496H859ZM671.5 285.5L671.513 283L670.383 282.994L669.631 283.839L671.5 285.5ZM635.5 326V328.5H636.623L637.369 327.661L635.5 326ZM65.5 326L63.6315 327.661L64.3773 328.5H65.5V326ZM29.5 285.5L31.3685 283.839L30.6174 282.994L29.4868 283L29.5 285.5ZM0 285.656H-2.5V288.17L0.0132413 288.156L0 285.656ZM0 23V20.5H-2.5V23H0ZM275.5 23H278V20.5H275.5V23ZM275.5 63.5H273V66H275.5V63.5ZM583.5 63.5V66H586V63.5H583.5ZM583.5 23V20.5H581V23H583.5ZM859 23H861.5V20.5H859V23ZM859 286.496L859.013 283.996L671.513 283L671.5 285.5L671.487 288L858.987 288.996L859 286.496ZM671.5 285.5L669.631 283.839L633.631 324.339L635.5 326L637.369 327.661L673.369 287.161L671.5 285.5ZM635.5 326V323.5H65.5V326V328.5H635.5V326ZM65.5 326L67.3685 324.339L31.3685 283.839L29.5 285.5L27.6315 287.161L63.6315 327.661L65.5 326ZM29.5 285.5L29.4868 283L-0.0132413 283.156L0 285.656L0.0132413 288.156L29.5132 288L29.5 285.5ZM0 285.656H2.5V23H0H-2.5V285.656H0ZM0 23V25.5H275.5V23V20.5H0V23ZM275.5 23H273V63.5H275.5H278V23H275.5ZM275.5 63.5V66H583.5V63.5V61H275.5V63.5ZM583.5 63.5H586V23H583.5H581V63.5H583.5ZM583.5 23V25.5H859V23V20.5H583.5V23ZM859 23H856.5V286.496H859H861.5V23H859Z" fill="url(#paint3_linear_1279_1775)" mask="url(#path-3-inside-2_1279_1775)"/>
<mask id="path-5-inside-3_1279_1775" fill="white">
<path d="M575.25 23L575.5 22.75V56.5H283.5V22.75L306.25 0H552.25L575.25 23ZM334.25 17V37H354.25L359.25 32V17H334.25ZM361.74 17V22H371.74V32H361.74V37H386.74V32H376.74V22H386.74V17H361.74ZM404.23 17L389.23 32V37H404.855L409.23 32.625V37H414.23V17H404.23ZM416.721 17V37H421.721V24.0752L423.195 25.5254L426.721 29.0752V37H431.721V27L426.721 22H434.646L436.721 24.0752V37H441.721V22L436.721 17H426.096V21.375L421.721 17H416.721ZM449.211 17L444.211 22V37H464.211L469.211 32V17H449.211ZM471.701 17V37H476.701V22H479.626L481.701 24.0752V32L486.701 37H496.701V17H491.701V32H488.776L486.701 29.9248V22L481.701 17H471.701ZM499.191 17V37H519.191L524.191 32V17H499.191ZM354.25 22V29.9248L352.175 32H339.25V22H354.25ZM409.23 22V31.375L406.33 28.4746L402.78 32H396.306L406.306 22H409.23ZM464.211 22V29.9248L462.136 32H449.211V24.0752L451.286 22H464.211ZM519.191 22V29.9248L517.116 32H504.191V22H519.191Z"/>
</mask>
<path d="M575.25 23L575.5 22.75V56.5H283.5V22.75L306.25 0H552.25L575.25 23ZM334.25 17V37H354.25L359.25 32V17H334.25ZM361.74 17V22H371.74V32H361.74V37H386.74V32H376.74V22H386.74V17H361.74ZM404.23 17L389.23 32V37H404.855L409.23 32.625V37H414.23V17H404.23ZM416.721 17V37H421.721V24.0752L423.195 25.5254L426.721 29.0752V37H431.721V27L426.721 22H434.646L436.721 24.0752V37H441.721V22L436.721 17H426.096V21.375L421.721 17H416.721ZM449.211 17L444.211 22V37H464.211L469.211 32V17H449.211ZM471.701 17V37H476.701V22H479.626L481.701 24.0752V32L486.701 37H496.701V17H491.701V32H488.776L486.701 29.9248V22L481.701 17H471.701ZM499.191 17V37H519.191L524.191 32V17H499.191ZM354.25 22V29.9248L352.175 32H339.25V22H354.25ZM409.23 22V31.375L406.33 28.4746L402.78 32H396.306L406.306 22H409.23ZM464.211 22V29.9248L462.136 32H449.211V24.0752L451.286 22H464.211ZM519.191 22V29.9248L517.116 32H504.191V22H519.191Z" fill="url(#paint4_linear_1279_1775)"/>
<path d="M575.25 23L574.896 23.3536L575.25 23.7071L575.604 23.3536L575.25 23ZM575.5 22.75H576V21.5429L575.146 22.3964L575.5 22.75ZM575.5 56.5V57H576V56.5H575.5ZM283.5 56.5H283V57H283.5V56.5ZM283.5 22.75L283.146 22.3964L283 22.5429V22.75H283.5ZM306.25 0V-0.5H306.043L305.896 -0.353553L306.25 0ZM552.25 0L552.604 -0.353553L552.457 -0.5H552.25V0ZM334.25 17V16.5H333.75V17H334.25ZM334.25 37H333.75V37.5H334.25V37ZM354.25 37V37.5H354.457L354.604 37.3536L354.25 37ZM359.25 32L359.604 32.3536L359.75 32.2071V32H359.25ZM359.25 17H359.75V16.5H359.25V17ZM361.74 17V16.5H361.24V17H361.74ZM361.74 22H361.24V22.5H361.74V22ZM371.74 22H372.24V21.5H371.74V22ZM371.74 32V32.5H372.24V32H371.74ZM361.74 32V31.5H361.24V32H361.74ZM361.74 37H361.24V37.5H361.74V37ZM386.74 37V37.5H387.24V37H386.74ZM386.74 32H387.24V31.5H386.74V32ZM376.74 32H376.24V32.5H376.74V32ZM376.74 22V21.5H376.24V22H376.74ZM386.74 22V22.5H387.24V22H386.74ZM386.74 17H387.24V16.5H386.74V17ZM404.23 17V16.5H404.023L403.877 16.6464L404.23 17ZM389.23 32L388.877 31.6464L388.73 31.7929V32H389.23ZM389.23 37H388.73V37.5H389.23V37ZM404.855 37V37.5H405.063L405.209 37.3536L404.855 37ZM409.23 32.625H409.73V31.4179L408.877 32.2714L409.23 32.625ZM409.23 37H408.73V37.5H409.23V37ZM414.23 37V37.5H414.73V37H414.23ZM414.23 17H414.73V16.5H414.23V17ZM416.721 17V16.5H416.221V17H416.721ZM416.721 37H416.221V37.5H416.721V37ZM421.721 37V37.5H422.221V37H421.721ZM421.721 24.0752L422.071 23.7187L421.221 22.8822V24.0752H421.721ZM423.195 25.5254L423.55 25.173L423.546 25.1689L423.195 25.5254ZM426.721 29.0752H427.221V28.8691L427.075 28.7229L426.721 29.0752ZM426.721 37H426.221V37.5H426.721V37ZM431.721 37V37.5H432.221V37H431.721ZM431.721 27H432.221V26.7929L432.074 26.6464L431.721 27ZM426.721 22V21.5H425.514L426.367 22.3536L426.721 22ZM434.646 22L434.999 21.6464L434.853 21.5H434.646V22ZM436.721 24.0752H437.221V23.8681L437.074 23.7216L436.721 24.0752ZM436.721 37H436.221V37.5H436.721V37ZM441.721 37V37.5H442.221V37H441.721ZM441.721 22H442.221V21.7929L442.074 21.6464L441.721 22ZM436.721 17L437.074 16.6464L436.928 16.5H436.721V17ZM426.096 17V16.5H425.596V17H426.096ZM426.096 21.375L425.742 21.7286L426.596 22.5821V21.375H426.096ZM421.721 17L422.074 16.6464L421.928 16.5H421.721V17ZM449.211 17V16.5H449.004L448.857 16.6464L449.211 17ZM444.211 22L443.857 21.6464L443.711 21.7929V22H444.211ZM444.211 37H443.711V37.5H444.211V37ZM464.211 37V37.5H464.418L464.564 37.3536L464.211 37ZM469.211 32L469.564 32.3536L469.711 32.2071V32H469.211ZM469.211 17H469.711V16.5H469.211V17ZM471.701 17V16.5H471.201V17H471.701ZM471.701 37H471.201V37.5H471.701V37ZM476.701 37V37.5H477.201V37H476.701ZM476.701 22V21.5H476.201V22H476.701ZM479.626 22L479.98 21.6464L479.833 21.5H479.626V22ZM481.701 24.0752H482.201V23.8681L482.055 23.7216L481.701 24.0752ZM481.701 32H481.201V32.2071L481.348 32.3536L481.701 32ZM486.701 37L486.348 37.3536L486.494 37.5H486.701V37ZM496.701 37V37.5H497.201V37H496.701ZM496.701 17H497.201V16.5H496.701V17ZM491.701 17V16.5H491.201V17H491.701ZM491.701 32V32.5H492.201V32H491.701ZM488.776 32L488.423 32.3536L488.569 32.5H488.776V32ZM486.701 29.9248H486.201V30.1319L486.348 30.2784L486.701 29.9248ZM486.701 22H487.201V21.7929L487.055 21.6464L486.701 22ZM481.701 17L482.055 16.6464L481.908 16.5H481.701V17ZM499.191 17V16.5H498.691V17H499.191ZM499.191 37H498.691V37.5H499.191V37ZM519.191 37V37.5H519.399L519.545 37.3536L519.191 37ZM524.191 32L524.545 32.3536L524.691 32.2071V32H524.191ZM524.191 17H524.691V16.5H524.191V17ZM354.25 22H354.75V21.5H354.25V22ZM354.25 29.9248L354.604 30.2784L354.75 30.1319V29.9248H354.25ZM352.175 32V32.5H352.382L352.528 32.3536L352.175 32ZM339.25 32H338.75V32.5H339.25V32ZM339.25 22V21.5H338.75V22H339.25ZM409.23 22H409.73V21.5H409.23V22ZM409.23 31.375L408.877 31.7286L409.73 32.5821V31.375H409.23ZM406.33 28.4746L406.684 28.1211L406.331 27.7687L405.978 28.1198L406.33 28.4746ZM402.78 32V32.5H402.986L403.133 32.3548L402.78 32ZM396.306 32L395.952 31.6464L395.099 32.5H396.306V32ZM406.306 22V21.5H406.099L405.952 21.6464L406.306 22ZM464.211 22H464.711V21.5H464.211V22ZM464.211 29.9248L464.564 30.2784L464.711 30.1319V29.9248H464.211ZM462.136 32V32.5H462.343L462.489 32.3536L462.136 32ZM449.211 32H448.711V32.5H449.211V32ZM449.211 24.0752L448.857 23.7216L448.711 23.8681V24.0752H449.211ZM451.286 22V21.5H451.079L450.933 21.6464L451.286 22ZM519.191 22H519.691V21.5H519.191V22ZM519.191 29.9248L519.545 30.2784L519.691 30.1319V29.9248H519.191ZM517.116 32V32.5H517.323L517.47 32.3536L517.116 32ZM504.191 32H503.691V32.5H504.191V32ZM504.191 22V21.5H503.691V22H504.191ZM575.25 23L575.604 23.3536L575.854 23.1036L575.5 22.75L575.146 22.3964L574.896 22.6464L575.25 23ZM575.5 22.75H575V56.5H575.5H576V22.75H575.5ZM575.5 56.5V56H283.5V56.5V57H575.5V56.5ZM283.5 56.5H284V22.75H283.5H283V56.5H283.5ZM283.5 22.75L283.854 23.1036L306.604 0.353553L306.25 0L305.896 -0.353553L283.146 22.3964L283.5 22.75ZM306.25 0V0.5H552.25V0V-0.5H306.25V0ZM552.25 0L551.896 0.353553L574.896 23.3536L575.25 23L575.604 22.6464L552.604 -0.353553L552.25 0ZM334.25 17H333.75V37H334.25H334.75V17H334.25ZM334.25 37V37.5H354.25V37V36.5H334.25V37ZM354.25 37L354.604 37.3536L359.604 32.3536L359.25 32L358.896 31.6464L353.896 36.6464L354.25 37ZM359.25 32H359.75V17H359.25H358.75V32H359.25ZM359.25 17V16.5H334.25V17V17.5H359.25V17ZM361.74 17H361.24V22H361.74H362.24V17H361.74ZM361.74 22V22.5H371.74V22V21.5H361.74V22ZM371.74 22H371.24V32H371.74H372.24V22H371.74ZM371.74 32V31.5H361.74V32V32.5H371.74V32ZM361.74 32H361.24V37H361.74H362.24V32H361.74ZM361.74 37V37.5H386.74V37V36.5H361.74V37ZM386.74 37H387.24V32H386.74H386.24V37H386.74ZM386.74 32V31.5H376.74V32V32.5H386.74V32ZM376.74 32H377.24V22H376.74H376.24V32H376.74ZM376.74 22V22.5H386.74V22V21.5H376.74V22ZM386.74 22H387.24V17H386.74H386.24V22H386.74ZM386.74 17V16.5H361.74V17V17.5H386.74V17ZM404.23 17L403.877 16.6464L388.877 31.6464L389.23 32L389.584 32.3536L404.584 17.3536L404.23 17ZM389.23 32H388.73V37H389.23H389.73V32H389.23ZM389.23 37V37.5H404.855V37V36.5H389.23V37ZM404.855 37L405.209 37.3536L409.584 32.9786L409.23 32.625L408.877 32.2714L404.502 36.6464L404.855 37ZM409.23 32.625H408.73V37H409.23H409.73V32.625H409.23ZM409.23 37V37.5H414.23V37V36.5H409.23V37ZM414.23 37H414.73V17H414.23H413.73V37H414.23ZM414.23 17V16.5H404.23V17V17.5H414.23V17ZM416.721 17H416.221V37H416.721H417.221V17H416.721ZM416.721 37V37.5H421.721V37V36.5H416.721V37ZM421.721 37H422.221V24.0752H421.721H421.221V37H421.721ZM421.721 24.0752L421.37 24.4317L422.845 25.8819L423.195 25.5254L423.546 25.1689L422.071 23.7187L421.721 24.0752ZM423.195 25.5254L422.841 25.8777L426.366 29.4275L426.721 29.0752L427.075 28.7229L423.55 25.1731L423.195 25.5254ZM426.721 29.0752H426.221V37H426.721H427.221V29.0752H426.721ZM426.721 37V37.5H431.721V37V36.5H426.721V37ZM431.721 37H432.221V27H431.721H431.221V37H431.721ZM431.721 27L432.074 26.6464L427.074 21.6464L426.721 22L426.367 22.3536L431.367 27.3536L431.721 27ZM426.721 22V22.5H434.646V22V21.5H426.721V22ZM434.646 22L434.292 22.3536L436.367 24.4287L436.721 24.0752L437.074 23.7216L434.999 21.6464L434.646 22ZM436.721 24.0752H436.221V37H436.721H437.221V24.0752H436.721ZM436.721 37V37.5H441.721V37V36.5H436.721V37ZM441.721 37H442.221V22H441.721H441.221V37H441.721ZM441.721 22L442.074 21.6464L437.074 16.6464L436.721 17L436.367 17.3536L441.367 22.3536L441.721 22ZM436.721 17V16.5H426.096V17V17.5H436.721V17ZM426.096 17H425.596V21.375H426.096H426.596V17H426.096ZM426.096 21.375L426.449 21.0214L422.074 16.6464L421.721 17L421.367 17.3536L425.742 21.7286L426.096 21.375ZM421.721 17V16.5H416.721V17V17.5H421.721V17ZM449.211 17L448.857 16.6464L443.857 21.6464L444.211 22L444.564 22.3536L449.564 17.3536L449.211 17ZM444.211 22H443.711V37H444.211H444.711V22H444.211ZM444.211 37V37.5H464.211V37V36.5H444.211V37ZM464.211 37L464.564 37.3536L469.564 32.3536L469.211 32L468.857 31.6464L463.857 36.6464L464.211 37ZM469.211 32H469.711V17H469.211H468.711V32H469.211ZM469.211 17V16.5H449.211V17V17.5H469.211V17ZM471.701 17H471.201V37H471.701H472.201V17H471.701ZM471.701 37V37.5H476.701V37V36.5H471.701V37ZM476.701 37H477.201V22H476.701H476.201V37H476.701ZM476.701 22V22.5H479.626V22V21.5H476.701V22ZM479.626 22L479.272 22.3536L481.348 24.4287L481.701 24.0752L482.055 23.7216L479.98 21.6464L479.626 22ZM481.701 24.0752H481.201V32H481.701H482.201V24.0752H481.701ZM481.701 32L481.348 32.3536L486.348 37.3536L486.701 37L487.055 36.6464L482.055 31.6464L481.701 32ZM486.701 37V37.5H496.701V37V36.5H486.701V37ZM496.701 37H497.201V17H496.701H496.201V37H496.701ZM496.701 17V16.5H491.701V17V17.5H496.701V17ZM491.701 17H491.201V32H491.701H492.201V17H491.701ZM491.701 32V31.5H488.776V32V32.5H491.701V32ZM488.776 32L489.13 31.6464L487.055 29.5713L486.701 29.9248L486.348 30.2784L488.423 32.3536L488.776 32ZM486.701 29.9248H487.201V22H486.701H486.201V29.9248H486.701ZM486.701 22L487.055 21.6464L482.055 16.6464L481.701 17L481.348 17.3536L486.348 22.3536L486.701 22ZM481.701 17V16.5H471.701V17V17.5H481.701V17ZM499.191 17H498.691V37H499.191H499.691V17H499.191ZM499.191 37V37.5H519.191V37V36.5H499.191V37ZM519.191 37L519.545 37.3536L524.545 32.3536L524.191 32L523.838 31.6464L518.838 36.6464L519.191 37ZM524.191 32H524.691V17H524.191H523.691V32H524.191ZM524.191 17V16.5H499.191V17V17.5H524.191V17ZM354.25 22H353.75V29.9248H354.25H354.75V22H354.25ZM354.25 29.9248L353.896 29.5713L351.821 31.6464L352.175 32L352.528 32.3536L354.604 30.2784L354.25 29.9248ZM352.175 32V31.5H339.25V32V32.5H352.175V32ZM339.25 32H339.75V22H339.25H338.75V32H339.25ZM339.25 22V22.5H354.25V22V21.5H339.25V22ZM409.23 22H408.73V31.375H409.23H409.73V22H409.23ZM409.23 31.375L409.584 31.0214L406.684 28.1211L406.33 28.4746L405.977 28.8282L408.877 31.7286L409.23 31.375ZM406.33 28.4746L405.978 28.1198L402.428 31.6452L402.78 32L403.133 32.3548L406.682 28.8294L406.33 28.4746ZM402.78 32V31.5H396.306V32V32.5H402.78V32ZM396.306 32L396.659 32.3536L406.659 22.3536L406.306 22L405.952 21.6464L395.952 31.6464L396.306 32ZM406.306 22V22.5H409.23V22V21.5H406.306V22ZM464.211 22H463.711V29.9248H464.211H464.711V22H464.211ZM464.211 29.9248L463.857 29.5713L461.782 31.6464L462.136 32L462.489 32.3536L464.564 30.2784L464.211 29.9248ZM462.136 32V31.5H449.211V32V32.5H462.136V32ZM449.211 32H449.711V24.0752H449.211H448.711V32H449.211ZM449.211 24.0752L449.564 24.4287L451.64 22.3536L451.286 22L450.933 21.6464L448.857 23.7216L449.211 24.0752ZM451.286 22V22.5H464.211V22V21.5H451.286V22ZM519.191 22H518.691V29.9248H519.191H519.691V22H519.191ZM519.191 29.9248L518.838 29.5713L516.763 31.6464L517.116 32L517.47 32.3536L519.545 30.2784L519.191 29.9248ZM517.116 32V31.5H504.191V32V32.5H517.116V32ZM504.191 32H504.691V22H504.191H503.691V32H504.191ZM504.191 22V22.5H519.191V22V21.5H504.191V22Z" fill="url(#paint5_linear_1279_1775)" mask="url(#path-5-inside-3_1279_1775)"/>
<defs>
<linearGradient id="paint0_linear_1279_1775" x1="429.5" y1="23" x2="429.5" y2="326" gradientUnits="userSpaceOnUse">
<stop stop-color="#A5B4FC" stop-opacity="0.25"/>
<stop offset="1" stop-color="#F4E4FF" stop-opacity="0.05"/>
</linearGradient>
<linearGradient id="paint1_linear_1279_1775" x1="429.5" y1="23" x2="429.5" y2="326" gradientUnits="userSpaceOnUse">
<stop offset="0.615385" stop-color="#C1C5DB"/>
<stop offset="1" stop-color="#A5B4FC"/>
</linearGradient>
<linearGradient id="paint2_linear_1279_1775" x1="429.5" y1="23" x2="429.5" y2="326" gradientUnits="userSpaceOnUse">
<stop stop-color="#A5B4FC" stop-opacity="0.25"/>
<stop offset="1" stop-color="#F4E4FF" stop-opacity="0.05"/>
</linearGradient>
<linearGradient id="paint3_linear_1279_1775" x1="429.5" y1="23" x2="429.5" y2="326" gradientUnits="userSpaceOnUse">
<stop offset="0.615385" stop-color="#C1C5DB"/>
<stop offset="1" stop-color="#A5B4FC"/>
</linearGradient>
<linearGradient id="paint4_linear_1279_1775" x1="429.5" y1="0" x2="429.5" y2="56.5" gradientUnits="userSpaceOnUse">
<stop stop-color="#D7DDFA"/>
<stop offset="0.615385" stop-color="#7687DA"/>
<stop offset="1" stop-color="#5F71CA"/>
</linearGradient>
<linearGradient id="paint5_linear_1279_1775" x1="429.5" y1="0" x2="429.5" y2="56.5" gradientUnits="userSpaceOnUse">
<stop offset="0.615385" stop-color="#C1C5DB"/>
<stop offset="1" stop-color="#A5B4FC"/>
</linearGradient>
</defs>
</svg>
