<svg width="859" height="326" viewBox="0 0 859 326" fill="none" xmlns="http://www.w3.org/2000/svg">
<mask id="path-1-inside-1_1280_1847" fill="white">
<path d="M859 286.496L671.5 285.5L635.5 326H65.5L29.5 285.5L0 285.656V23H275.5V63.5H583.5V23H859V286.496Z"/>
</mask>
<path d="M859 286.496L671.5 285.5L635.5 326H65.5L29.5 285.5L0 285.656V23H275.5V63.5H583.5V23H859V286.496Z" fill="url(#paint0_linear_1280_1847)" fill-opacity="0.25"/>
<path d="M859 286.496L858.987 288.996L861.5 289.009V286.496H859ZM671.5 285.5L671.513 283L670.383 282.994L669.631 283.839L671.5 285.5ZM635.5 326V328.5H636.623L637.369 327.661L635.5 326ZM65.5 326L63.6315 327.661L64.3773 328.5H65.5V326ZM29.5 285.5L31.3685 283.839L30.6174 282.994L29.4868 283L29.5 285.5ZM0 285.656H-2.5V288.17L0.0132413 288.156L0 285.656ZM0 23V20.5H-2.5V23H0ZM275.5 23H278V20.5H275.5V23ZM275.5 63.5H273V66H275.5V63.5ZM583.5 63.5V66H586V63.5H583.5ZM583.5 23V20.5H581V23H583.5ZM859 23H861.5V20.5H859V23ZM859 286.496L859.013 283.996L671.513 283L671.5 285.5L671.487 288L858.987 288.996L859 286.496ZM671.5 285.5L669.631 283.839L633.631 324.339L635.5 326L637.369 327.661L673.369 287.161L671.5 285.5ZM635.5 326V323.5H65.5V326V328.5H635.5V326ZM65.5 326L67.3685 324.339L31.3685 283.839L29.5 285.5L27.6315 287.161L63.6315 327.661L65.5 326ZM29.5 285.5L29.4868 283L-0.0132413 283.156L0 285.656L0.0132413 288.156L29.5132 288L29.5 285.5ZM0 285.656H2.5V23H0H-2.5V285.656H0ZM0 23V25.5H275.5V23V20.5H0V23ZM275.5 23H273V63.5H275.5H278V23H275.5ZM275.5 63.5V66H583.5V63.5V61H275.5V63.5ZM583.5 63.5H586V23H583.5H581V63.5H583.5ZM583.5 23V25.5H859V23V20.5H583.5V23ZM859 23H856.5V286.496H859H861.5V23H859Z" fill="url(#paint1_linear_1280_1847)" mask="url(#path-1-inside-1_1280_1847)"/>
<mask id="path-3-inside-2_1280_1847" fill="white">
<path d="M859 286.496L671.5 285.5L635.5 326H65.5L29.5 285.5L0 285.656V23H275.5V63.5H583.5V23H859V286.496Z"/>
</mask>
<path d="M859 286.496L671.5 285.5L635.5 326H65.5L29.5 285.5L0 285.656V23H275.5V63.5H583.5V23H859V286.496Z" fill="url(#paint2_linear_1280_1847)" fill-opacity="0.25"/>
<path d="M859 286.496L858.987 288.996L861.5 289.009V286.496H859ZM671.5 285.5L671.513 283L670.383 282.994L669.631 283.839L671.5 285.5ZM635.5 326V328.5H636.623L637.369 327.661L635.5 326ZM65.5 326L63.6315 327.661L64.3773 328.5H65.5V326ZM29.5 285.5L31.3685 283.839L30.6174 282.994L29.4868 283L29.5 285.5ZM0 285.656H-2.5V288.17L0.0132413 288.156L0 285.656ZM0 23V20.5H-2.5V23H0ZM275.5 23H278V20.5H275.5V23ZM275.5 63.5H273V66H275.5V63.5ZM583.5 63.5V66H586V63.5H583.5ZM583.5 23V20.5H581V23H583.5ZM859 23H861.5V20.5H859V23ZM859 286.496L859.013 283.996L671.513 283L671.5 285.5L671.487 288L858.987 288.996L859 286.496ZM671.5 285.5L669.631 283.839L633.631 324.339L635.5 326L637.369 327.661L673.369 287.161L671.5 285.5ZM635.5 326V323.5H65.5V326V328.5H635.5V326ZM65.5 326L67.3685 324.339L31.3685 283.839L29.5 285.5L27.6315 287.161L63.6315 327.661L65.5 326ZM29.5 285.5L29.4868 283L-0.0132413 283.156L0 285.656L0.0132413 288.156L29.5132 288L29.5 285.5ZM0 285.656H2.5V23H0H-2.5V285.656H0ZM0 23V25.5H275.5V23V20.5H0V23ZM275.5 23H273V63.5H275.5H278V23H275.5ZM275.5 63.5V66H583.5V63.5V61H275.5V63.5ZM583.5 63.5H586V23H583.5H581V63.5H583.5ZM583.5 23V25.5H859V23V20.5H583.5V23ZM859 23H856.5V286.496H859H861.5V23H859Z" fill="url(#paint3_linear_1280_1847)" mask="url(#path-3-inside-2_1280_1847)"/>
<mask id="path-5-inside-3_1280_1847" fill="white">
<path d="M575.25 23L575.5 22.75V56.5H283.5V22.75L306.25 0H552.25L575.25 23ZM294.925 26.2002V41H309.725L313.425 37.2998V26.2002H294.925ZM318.968 26.2002L315.268 29.9004V41H330.067L333.768 37.2998V26.2002H318.968ZM335.61 26.2002V41H339.311V31.4355L340.402 32.5088L343.011 35.1357V41H346.711V33.5996L343.011 29.9004H348.875L350.41 31.4355V41H354.11V29.9004L350.41 26.2002H342.548V29.4375L339.311 26.2002H335.61ZM367.054 26.2002L355.953 37.2998V41H367.516L370.753 37.7627V41H374.453V26.2002H367.054ZM376.296 26.2002V29.9004H383.696V37.2998H376.296V41H394.796V37.2998H387.396V29.9004H394.796V26.2002H376.296ZM396.639 26.2002V41H400.339V29.9004H402.503L404.039 31.4355V37.2998L407.739 41H415.139V26.2002H411.438V37.2998H409.274L407.739 35.7646V29.9004L404.039 26.2002H396.639ZM422.528 26.2002V34.0625H425.766L422.528 37.2998V41H426.229V38.8359L427.764 37.2998H441.028V29.9004L437.328 26.2002H422.528ZM453.971 26.2002L442.871 37.2998V41H454.434L457.671 37.7627V41H461.371V26.2002H453.971ZM466.914 26.2002L463.214 29.9004V41H466.914V35.4502H476.479L478.014 36.9854V41H481.714V35.4502L478.477 32.2129H481.714V26.2002H466.914ZM483.557 26.2002V29.9004H489.421L490.956 31.4355V41H494.656V29.9004H502.057V26.2002H494.194V29.4375L490.956 26.2002H483.557ZM503.899 26.2002V41H507.6V29.9004H509.764L511.299 31.4355V37.2998L514.999 41H522.399V26.2002H518.699V37.2998H516.534L514.999 35.7646V29.9004L511.299 26.2002H503.899ZM524.242 26.2002V32.2129H527.479L524.242 35.4502V41H542.742V37.2998H527.942V36.9854L529.478 35.4502H542.742V31.75H527.942V29.9004H542.742V26.2002H524.242ZM548.285 26.2002L544.585 29.9004V41H548.285V35.4502H557.85L559.385 36.9854V41H563.085V35.4502L559.848 32.2129H563.085V26.2002H548.285ZM309.725 29.9004V35.7646L308.189 37.2998H298.625V29.9004H309.725ZM330.067 29.9004V35.7646L328.532 37.2998H318.968V31.4355L320.503 29.9004H330.067ZM370.753 29.9004V36.8379L368.607 34.6914L365.98 37.2998H361.188L368.589 29.9004H370.753ZM457.671 29.9004V36.8379L455.524 34.6914L452.897 37.2998H448.106L455.506 29.9004H457.671ZM435.793 29.9004L437.328 31.4355V33.5996H426.229V29.9004H435.793ZM478.014 29.9004V31.75H466.914V31.4355L468.449 29.9004H478.014ZM559.385 29.9004V31.75H548.285V31.4355L549.82 29.9004H559.385Z"/>
</mask>
<path d="M575.25 23L575.5 22.75V56.5H283.5V22.75L306.25 0H552.25L575.25 23ZM294.925 26.2002V41H309.725L313.425 37.2998V26.2002H294.925ZM318.968 26.2002L315.268 29.9004V41H330.067L333.768 37.2998V26.2002H318.968ZM335.61 26.2002V41H339.311V31.4355L340.402 32.5088L343.011 35.1357V41H346.711V33.5996L343.011 29.9004H348.875L350.41 31.4355V41H354.11V29.9004L350.41 26.2002H342.548V29.4375L339.311 26.2002H335.61ZM367.054 26.2002L355.953 37.2998V41H367.516L370.753 37.7627V41H374.453V26.2002H367.054ZM376.296 26.2002V29.9004H383.696V37.2998H376.296V41H394.796V37.2998H387.396V29.9004H394.796V26.2002H376.296ZM396.639 26.2002V41H400.339V29.9004H402.503L404.039 31.4355V37.2998L407.739 41H415.139V26.2002H411.438V37.2998H409.274L407.739 35.7646V29.9004L404.039 26.2002H396.639ZM422.528 26.2002V34.0625H425.766L422.528 37.2998V41H426.229V38.8359L427.764 37.2998H441.028V29.9004L437.328 26.2002H422.528ZM453.971 26.2002L442.871 37.2998V41H454.434L457.671 37.7627V41H461.371V26.2002H453.971ZM466.914 26.2002L463.214 29.9004V41H466.914V35.4502H476.479L478.014 36.9854V41H481.714V35.4502L478.477 32.2129H481.714V26.2002H466.914ZM483.557 26.2002V29.9004H489.421L490.956 31.4355V41H494.656V29.9004H502.057V26.2002H494.194V29.4375L490.956 26.2002H483.557ZM503.899 26.2002V41H507.6V29.9004H509.764L511.299 31.4355V37.2998L514.999 41H522.399V26.2002H518.699V37.2998H516.534L514.999 35.7646V29.9004L511.299 26.2002H503.899ZM524.242 26.2002V32.2129H527.479L524.242 35.4502V41H542.742V37.2998H527.942V36.9854L529.478 35.4502H542.742V31.75H527.942V29.9004H542.742V26.2002H524.242ZM548.285 26.2002L544.585 29.9004V41H548.285V35.4502H557.85L559.385 36.9854V41H563.085V35.4502L559.848 32.2129H563.085V26.2002H548.285ZM309.725 29.9004V35.7646L308.189 37.2998H298.625V29.9004H309.725ZM330.067 29.9004V35.7646L328.532 37.2998H318.968V31.4355L320.503 29.9004H330.067ZM370.753 29.9004V36.8379L368.607 34.6914L365.98 37.2998H361.188L368.589 29.9004H370.753ZM457.671 29.9004V36.8379L455.524 34.6914L452.897 37.2998H448.106L455.506 29.9004H457.671ZM435.793 29.9004L437.328 31.4355V33.5996H426.229V29.9004H435.793ZM478.014 29.9004V31.75H466.914V31.4355L468.449 29.9004H478.014ZM559.385 29.9004V31.75H548.285V31.4355L549.82 29.9004H559.385Z" fill="url(#paint4_linear_1280_1847)"/>
<path d="M575.25 23L574.896 23.3536L575.25 23.7071L575.604 23.3536L575.25 23ZM575.5 22.75H576V21.5429L575.146 22.3964L575.5 22.75ZM575.5 56.5V57H576V56.5H575.5ZM283.5 56.5H283V57H283.5V56.5ZM283.5 22.75L283.146 22.3964L283 22.5429V22.75H283.5ZM306.25 0V-0.5H306.043L305.896 -0.353553L306.25 0ZM552.25 0L552.604 -0.353553L552.457 -0.5H552.25V0ZM294.925 26.2002V25.7002H294.425V26.2002H294.925ZM294.925 41H294.425V41.5H294.925V41ZM309.725 41V41.5H309.932L310.078 41.3536L309.725 41ZM313.425 37.2998L313.778 37.6534L313.925 37.5069V37.2998H313.425ZM313.425 26.2002H313.925V25.7002H313.425V26.2002ZM318.968 26.2002V25.7002H318.761L318.614 25.8466L318.968 26.2002ZM315.268 29.9004L314.914 29.5468L314.768 29.6933V29.9004H315.268ZM315.268 41H314.768V41.5H315.268V41ZM330.067 41V41.5H330.274L330.421 41.3536L330.067 41ZM333.768 37.2998L334.121 37.6534L334.268 37.5069V37.2998H333.768ZM333.768 26.2002H334.268V25.7002H333.768V26.2002ZM335.61 26.2002V25.7002H335.11V26.2002H335.61ZM335.61 41H335.11V41.5H335.61V41ZM339.311 41V41.5H339.811V41H339.311ZM339.311 31.4355L339.661 31.079L338.811 30.2429V31.4355H339.311ZM340.402 32.5088L340.757 32.1565L340.753 32.1522L340.402 32.5088ZM343.011 35.1357H343.511V34.9297L343.366 34.7834L343.011 35.1357ZM343.011 41H342.511V41.5H343.011V41ZM346.711 41V41.5H347.211V41H346.711ZM346.711 33.5996H347.211V33.3925L347.064 33.246L346.711 33.5996ZM343.011 29.9004V29.4004H341.803L342.657 30.254L343.011 29.9004ZM348.875 29.9004L349.229 29.5468L349.082 29.4004H348.875V29.9004ZM350.41 31.4355H350.91V31.2284L350.764 31.082L350.41 31.4355ZM350.41 41H349.91V41.5H350.41V41ZM354.11 41V41.5H354.61V41H354.11ZM354.11 29.9004H354.61V29.6933L354.464 29.5468L354.11 29.9004ZM350.41 26.2002L350.764 25.8466L350.617 25.7002H350.41V26.2002ZM342.548 26.2002V25.7002H342.048V26.2002H342.548ZM342.548 29.4375L342.194 29.7911L343.048 30.6446V29.4375H342.548ZM339.311 26.2002L339.664 25.8466L339.518 25.7002H339.311V26.2002ZM367.054 26.2002V25.7002H366.847L366.7 25.8466L367.054 26.2002ZM355.953 37.2998L355.6 36.9462L355.453 37.0927V37.2998H355.953ZM355.953 41H355.453V41.5H355.953V41ZM367.516 41V41.5H367.723L367.869 41.3536L367.516 41ZM370.753 37.7627H371.253V36.5556L370.399 37.4091L370.753 37.7627ZM370.753 41H370.253V41.5H370.753V41ZM374.453 41V41.5H374.953V41H374.453ZM374.453 26.2002H374.953V25.7002H374.453V26.2002ZM376.296 26.2002V25.7002H375.796V26.2002H376.296ZM376.296 29.9004H375.796V30.4004H376.296V29.9004ZM383.696 29.9004H384.196V29.4004H383.696V29.9004ZM383.696 37.2998V37.7998H384.196V37.2998H383.696ZM376.296 37.2998V36.7998H375.796V37.2998H376.296ZM376.296 41H375.796V41.5H376.296V41ZM394.796 41V41.5H395.296V41H394.796ZM394.796 37.2998H395.296V36.7998H394.796V37.2998ZM387.396 37.2998H386.896V37.7998H387.396V37.2998ZM387.396 29.9004V29.4004H386.896V29.9004H387.396ZM394.796 29.9004V30.4004H395.296V29.9004H394.796ZM394.796 26.2002H395.296V25.7002H394.796V26.2002ZM396.639 26.2002V25.7002H396.139V26.2002H396.639ZM396.639 41H396.139V41.5H396.639V41ZM400.339 41V41.5H400.839V41H400.339ZM400.339 29.9004V29.4004H399.839V29.9004H400.339ZM402.503 29.9004L402.856 29.5467L402.71 29.4004H402.503V29.9004ZM404.039 31.4355H404.539V31.2283L404.393 31.0819L404.039 31.4355ZM404.039 37.2998H403.539V37.5069L403.686 37.6534L404.039 37.2998ZM407.739 41L407.386 41.3536L407.532 41.5H407.739V41ZM415.139 41V41.5H415.639V41H415.139ZM415.139 26.2002H415.639V25.7002H415.139V26.2002ZM411.438 26.2002V25.7002H410.938V26.2002H411.438ZM411.438 37.2998V37.7998H411.938V37.2998H411.438ZM409.274 37.2998L408.921 37.6534L409.067 37.7998H409.274V37.2998ZM407.739 35.7646H407.239V35.9718L407.386 36.1182L407.739 35.7646ZM407.739 29.9004H408.239V29.6933L408.093 29.5468L407.739 29.9004ZM404.039 26.2002L404.393 25.8466L404.246 25.7002H404.039V26.2002ZM422.528 26.2002V25.7002H422.028V26.2002H422.528ZM422.528 34.0625H422.028V34.5625H422.528V34.0625ZM425.766 34.0625L426.119 34.4161L426.973 33.5625H425.766V34.0625ZM422.528 37.2998L422.175 36.9463L422.028 37.0927V37.2998H422.528ZM422.528 41H422.028V41.5H422.528V41ZM426.229 41V41.5H426.729V41H426.229ZM426.229 38.8359L425.875 38.4825L425.729 38.6289V38.8359H426.229ZM427.764 37.2998V36.7998H427.556L427.41 36.9464L427.764 37.2998ZM441.028 37.2998V37.7998H441.528V37.2998H441.028ZM441.028 29.9004H441.528V29.6933L441.382 29.5468L441.028 29.9004ZM437.328 26.2002L437.682 25.8466L437.535 25.7002H437.328V26.2002ZM453.971 26.2002V25.7002H453.764L453.617 25.8466L453.971 26.2002ZM442.871 37.2998L442.518 36.9463L442.371 37.0927V37.2998H442.871ZM442.871 41H442.371V41.5H442.871V41ZM454.434 41V41.5H454.641L454.787 41.3536L454.434 41ZM457.671 37.7627H458.171V36.5556L457.317 37.4091L457.671 37.7627ZM457.671 41H457.171V41.5H457.671V41ZM461.371 41V41.5H461.871V41H461.371ZM461.371 26.2002H461.871V25.7002H461.371V26.2002ZM466.914 26.2002V25.7002H466.707L466.561 25.8466L466.914 26.2002ZM463.214 29.9004L462.86 29.5468L462.714 29.6933V29.9004H463.214ZM463.214 41H462.714V41.5H463.214V41ZM466.914 41V41.5H467.414V41H466.914ZM466.914 35.4502V34.9502H466.414V35.4502H466.914ZM476.479 35.4502L476.832 35.0966L476.686 34.9502H476.479V35.4502ZM478.014 36.9854H478.514V36.7782L478.367 36.6318L478.014 36.9854ZM478.014 41H477.514V41.5H478.014V41ZM481.714 41V41.5H482.214V41H481.714ZM481.714 35.4502H482.214V35.2431L482.067 35.0966L481.714 35.4502ZM478.477 32.2129V31.7129H477.269L478.123 32.5664L478.477 32.2129ZM481.714 32.2129V32.7129H482.214V32.2129H481.714ZM481.714 26.2002H482.214V25.7002H481.714V26.2002ZM483.557 26.2002V25.7002H483.057V26.2002H483.557ZM483.557 29.9004H483.057V30.4004H483.557V29.9004ZM489.421 29.9004L489.774 29.5468L489.628 29.4004H489.421V29.9004ZM490.956 31.4355H491.456V31.2284L491.31 31.082L490.956 31.4355ZM490.956 41H490.456V41.5H490.956V41ZM494.656 41V41.5H495.156V41H494.656ZM494.656 29.9004V29.4004H494.156V29.9004H494.656ZM502.057 29.9004V30.4004H502.557V29.9004H502.057ZM502.057 26.2002H502.557V25.7002H502.057V26.2002ZM494.194 26.2002V25.7002H493.694V26.2002H494.194ZM494.194 29.4375L493.841 29.7911L494.694 30.6444V29.4375H494.194ZM490.956 26.2002L491.31 25.8466L491.163 25.7002H490.956V26.2002ZM503.899 26.2002V25.7002H503.399V26.2002H503.899ZM503.899 41H503.399V41.5H503.899V41ZM507.6 41V41.5H508.1V41H507.6ZM507.6 29.9004V29.4004H507.1V29.9004H507.6ZM509.764 29.9004L510.117 29.5468L509.971 29.4004H509.764V29.9004ZM511.299 31.4355H511.799V31.2284L511.652 31.082L511.299 31.4355ZM511.299 37.2998H510.799V37.5069L510.945 37.6534L511.299 37.2998ZM514.999 41L514.645 41.3536L514.792 41.5H514.999V41ZM522.399 41V41.5H522.899V41H522.399ZM522.399 26.2002H522.899V25.7002H522.399V26.2002ZM518.699 26.2002V25.7002H518.199V26.2002H518.699ZM518.699 37.2998V37.7998H519.199V37.2998H518.699ZM516.534 37.2998L516.181 37.6534L516.327 37.7998H516.534V37.2998ZM514.999 35.7646H514.499V35.9718L514.645 36.1182L514.999 35.7646ZM514.999 29.9004H515.499V29.6933L515.353 29.5468L514.999 29.9004ZM511.299 26.2002L511.652 25.8466L511.506 25.7002H511.299V26.2002ZM524.242 26.2002V25.7002H523.742V26.2002H524.242ZM524.242 32.2129H523.742V32.7129H524.242V32.2129ZM527.479 32.2129L527.833 32.5664L528.687 31.7129H527.479V32.2129ZM524.242 35.4502L523.889 35.0966L523.742 35.2431V35.4502H524.242ZM524.242 41H523.742V41.5H524.242V41ZM542.742 41V41.5H543.242V41H542.742ZM542.742 37.2998H543.242V36.7998H542.742V37.2998ZM527.942 37.2998H527.442V37.7998H527.942V37.2998ZM527.942 36.9854L527.589 36.6318L527.442 36.7782V36.9854H527.942ZM529.478 35.4502V34.9502H529.27L529.124 35.0966L529.478 35.4502ZM542.742 35.4502V35.9502H543.242V35.4502H542.742ZM542.742 31.75H543.242V31.25H542.742V31.75ZM527.942 31.75H527.442V32.25H527.942V31.75ZM527.942 29.9004V29.4004H527.442V29.9004H527.942ZM542.742 29.9004V30.4004H543.242V29.9004H542.742ZM542.742 26.2002H543.242V25.7002H542.742V26.2002ZM548.285 26.2002V25.7002H548.078L547.932 25.8466L548.285 26.2002ZM544.585 29.9004L544.231 29.5468L544.085 29.6933V29.9004H544.585ZM544.585 41H544.085V41.5H544.585V41ZM548.285 41V41.5H548.785V41H548.285ZM548.285 35.4502V34.9502H547.785V35.4502H548.285ZM557.85 35.4502L558.203 35.0966L558.057 34.9502H557.85V35.4502ZM559.385 36.9854H559.885V36.7782L559.738 36.6318L559.385 36.9854ZM559.385 41H558.885V41.5H559.385V41ZM563.085 41V41.5H563.585V41H563.085ZM563.085 35.4502H563.585V35.2431L563.439 35.0966L563.085 35.4502ZM559.848 32.2129V31.7129H558.641L559.494 32.5664L559.848 32.2129ZM563.085 32.2129V32.7129H563.585V32.2129H563.085ZM563.085 26.2002H563.585V25.7002H563.085V26.2002ZM309.725 29.9004H310.225V29.4004H309.725V29.9004ZM309.725 35.7646L310.078 36.1182L310.225 35.9718V35.7646H309.725ZM308.189 37.2998V37.7998H308.397L308.543 37.6534L308.189 37.2998ZM298.625 37.2998H298.125V37.7998H298.625V37.2998ZM298.625 29.9004V29.4004H298.125V29.9004H298.625ZM330.067 29.9004H330.567V29.4004H330.067V29.9004ZM330.067 35.7646L330.421 36.1182L330.567 35.9718V35.7646H330.067ZM328.532 37.2998V37.7998H328.739L328.886 37.6534L328.532 37.2998ZM318.968 37.2998H318.468V37.7998H318.968V37.2998ZM318.968 31.4355L318.614 31.082L318.468 31.2284V31.4355H318.968ZM320.503 29.9004V29.4004H320.296L320.149 29.5468L320.503 29.9004ZM370.753 29.9004H371.253V29.4004H370.753V29.9004ZM370.753 36.8379L370.399 37.1914L371.253 38.0454V36.8379H370.753ZM368.607 34.6914L368.961 34.3379L368.609 33.9855L368.255 34.3366L368.607 34.6914ZM365.98 37.2998V37.7998H366.187L366.333 37.6546L365.98 37.2998ZM361.188 37.2998L360.835 36.9462L359.981 37.7998H361.188V37.2998ZM368.589 29.9004V29.4004H368.382L368.235 29.5468L368.589 29.9004ZM457.671 29.9004H458.171V29.4004H457.671V29.9004ZM457.671 36.8379L457.317 37.1914L458.171 38.045V36.8379H457.671ZM455.524 34.6914L455.878 34.3379L455.526 33.9855L455.172 34.3366L455.524 34.6914ZM452.897 37.2998V37.7998H453.104L453.25 37.6546L452.897 37.2998ZM448.106 37.2998L447.753 36.9463L446.899 37.7998H448.106V37.2998ZM455.506 29.9004V29.4004H455.299L455.152 29.5468L455.506 29.9004ZM435.793 29.9004L436.147 29.5468L436 29.4004H435.793V29.9004ZM437.328 31.4355H437.828V31.2284L437.682 31.082L437.328 31.4355ZM437.328 33.5996V34.0996H437.828V33.5996H437.328ZM426.229 33.5996H425.729V34.0996H426.229V33.5996ZM426.229 29.9004V29.4004H425.729V29.9004H426.229ZM478.014 29.9004H478.514V29.4004H478.014V29.9004ZM478.014 31.75V32.25H478.514V31.75H478.014ZM466.914 31.75H466.414V32.25H466.914V31.75ZM466.914 31.4355L466.561 31.082L466.414 31.2284V31.4355H466.914ZM468.449 29.9004V29.4004H468.242L468.096 29.5468L468.449 29.9004ZM559.385 29.9004H559.885V29.4004H559.385V29.9004ZM559.385 31.75V32.25H559.885V31.75H559.385ZM548.285 31.75H547.785V32.25H548.285V31.75ZM548.285 31.4355L547.932 31.082L547.785 31.2284V31.4355H548.285ZM549.82 29.9004V29.4004H549.613L549.467 29.5468L549.82 29.9004ZM575.25 23L575.604 23.3536L575.854 23.1036L575.5 22.75L575.146 22.3964L574.896 22.6464L575.25 23ZM575.5 22.75H575V56.5H575.5H576V22.75H575.5ZM575.5 56.5V56H283.5V56.5V57H575.5V56.5ZM283.5 56.5H284V22.75H283.5H283V56.5H283.5ZM283.5 22.75L283.854 23.1036L306.604 0.353553L306.25 0L305.896 -0.353553L283.146 22.3964L283.5 22.75ZM306.25 0V0.5H552.25V0V-0.5H306.25V0ZM552.25 0L551.896 0.353553L574.896 23.3536L575.25 23L575.604 22.6464L552.604 -0.353553L552.25 0ZM294.925 26.2002H294.425V41H294.925H295.425V26.2002H294.925ZM294.925 41V41.5H309.725V41V40.5H294.925V41ZM309.725 41L310.078 41.3536L313.778 37.6534L313.425 37.2998L313.071 36.9463L309.371 40.6464L309.725 41ZM313.425 37.2998H313.925V26.2002H313.425H312.925V37.2998H313.425ZM313.425 26.2002V25.7002H294.925V26.2002V26.7002H313.425V26.2002ZM318.968 26.2002L318.614 25.8466L314.914 29.5468L315.268 29.9004L315.621 30.2539L319.321 26.5537L318.968 26.2002ZM315.268 29.9004H314.768V41H315.268H315.768V29.9004H315.268ZM315.268 41V41.5H330.067V41V40.5H315.268V41ZM330.067 41L330.421 41.3536L334.121 37.6534L333.768 37.2998L333.414 36.9463L329.714 40.6464L330.067 41ZM333.768 37.2998H334.268V26.2002H333.768H333.268V37.2998H333.768ZM333.768 26.2002V25.7002H318.968V26.2002V26.7002H333.768V26.2002ZM335.61 26.2002H335.11V41H335.61H336.11V26.2002H335.61ZM335.61 41V41.5H339.311V41V40.5H335.61V41ZM339.311 41H339.811V31.4355H339.311H338.811V41H339.311ZM339.311 31.4355L338.96 31.7921L340.052 32.8654L340.402 32.5088L340.753 32.1522L339.661 31.079L339.311 31.4355ZM340.402 32.5088L340.048 32.8611L342.656 35.488L343.011 35.1357L343.366 34.7834L340.757 32.1565L340.402 32.5088ZM343.011 35.1357H342.511V41H343.011H343.511V35.1357H343.011ZM343.011 41V41.5H346.711V41V40.5H343.011V41ZM346.711 41H347.211V33.5996H346.711H346.211V41H346.711ZM346.711 33.5996L347.064 33.246L343.364 29.5468L343.011 29.9004L342.657 30.254L346.357 33.9532L346.711 33.5996ZM343.011 29.9004V30.4004H348.875V29.9004V29.4004H343.011V29.9004ZM348.875 29.9004L348.521 30.2539L350.057 31.7891L350.41 31.4355L350.764 31.082L349.229 29.5468L348.875 29.9004ZM350.41 31.4355H349.91V41H350.41H350.91V31.4355H350.41ZM350.41 41V41.5H354.11V41V40.5H350.41V41ZM354.11 41H354.61V29.9004H354.11H353.61V41H354.11ZM354.11 29.9004L354.464 29.5468L350.764 25.8466L350.41 26.2002L350.057 26.5537L353.757 30.2539L354.11 29.9004ZM350.41 26.2002V25.7002H342.548V26.2002V26.7002H350.41V26.2002ZM342.548 26.2002H342.048V29.4375H342.548H343.048V26.2002H342.548ZM342.548 29.4375L342.901 29.0839L339.664 25.8466L339.311 26.2002L338.957 26.5537L342.194 29.7911L342.548 29.4375ZM339.311 26.2002V25.7002H335.61V26.2002V26.7002H339.311V26.2002ZM367.054 26.2002L366.7 25.8466L355.6 36.9462L355.953 37.2998L356.307 37.6534L367.407 26.5538L367.054 26.2002ZM355.953 37.2998H355.453V41H355.953H356.453V37.2998H355.953ZM355.953 41V41.5H367.516V41V40.5H355.953V41ZM367.516 41L367.869 41.3536L371.106 38.1162L370.753 37.7627L370.399 37.4091L367.162 40.6464L367.516 41ZM370.753 37.7627H370.253V41H370.753H371.253V37.7627H370.753ZM370.753 41V41.5H374.453V41V40.5H370.753V41ZM374.453 41H374.953V26.2002H374.453H373.953V41H374.453ZM374.453 26.2002V25.7002H367.054V26.2002V26.7002H374.453V26.2002ZM376.296 26.2002H375.796V29.9004H376.296H376.796V26.2002H376.296ZM376.296 29.9004V30.4004H383.696V29.9004V29.4004H376.296V29.9004ZM383.696 29.9004H383.196V37.2998H383.696H384.196V29.9004H383.696ZM383.696 37.2998V36.7998H376.296V37.2998V37.7998H383.696V37.2998ZM376.296 37.2998H375.796V41H376.296H376.796V37.2998H376.296ZM376.296 41V41.5H394.796V41V40.5H376.296V41ZM394.796 41H395.296V37.2998H394.796H394.296V41H394.796ZM394.796 37.2998V36.7998H387.396V37.2998V37.7998H394.796V37.2998ZM387.396 37.2998H387.896V29.9004H387.396H386.896V37.2998H387.396ZM387.396 29.9004V30.4004H394.796V29.9004V29.4004H387.396V29.9004ZM394.796 29.9004H395.296V26.2002H394.796H394.296V29.9004H394.796ZM394.796 26.2002V25.7002H376.296V26.2002V26.7002H394.796V26.2002ZM396.639 26.2002H396.139V41H396.639H397.139V26.2002H396.639ZM396.639 41V41.5H400.339V41V40.5H396.639V41ZM400.339 41H400.839V29.9004H400.339H399.839V41H400.339ZM400.339 29.9004V30.4004H402.503V29.9004V29.4004H400.339V29.9004ZM402.503 29.9004L402.149 30.2541L403.686 31.7892L404.039 31.4355L404.393 31.0819L402.856 29.5467L402.503 29.9004ZM404.039 31.4355H403.539V37.2998H404.039H404.539V31.4355H404.039ZM404.039 37.2998L403.686 37.6534L407.386 41.3536L407.739 41L408.093 40.6464L404.393 36.9463L404.039 37.2998ZM407.739 41V41.5H415.139V41V40.5H407.739V41ZM415.139 41H415.639V26.2002H415.139H414.639V41H415.139ZM415.139 26.2002V25.7002H411.438V26.2002V26.7002H415.139V26.2002ZM411.438 26.2002H410.938V37.2998H411.438H411.938V26.2002H411.438ZM411.438 37.2998V36.7998H409.274V37.2998V37.7998H411.438V37.2998ZM409.274 37.2998L409.628 36.9463L408.093 35.4111L407.739 35.7646L407.386 36.1182L408.921 37.6534L409.274 37.2998ZM407.739 35.7646H408.239V29.9004H407.739H407.239V35.7646H407.739ZM407.739 29.9004L408.093 29.5468L404.393 25.8466L404.039 26.2002L403.686 26.5537L407.386 30.2539L407.739 29.9004ZM404.039 26.2002V25.7002H396.639V26.2002V26.7002H404.039V26.2002ZM422.528 26.2002H422.028V34.0625H422.528H423.028V26.2002H422.528ZM422.528 34.0625V34.5625H425.766V34.0625V33.5625H422.528V34.0625ZM425.766 34.0625L425.412 33.7089L422.175 36.9463L422.528 37.2998L422.882 37.6534L426.119 34.4161L425.766 34.0625ZM422.528 37.2998H422.028V41H422.528H423.028V37.2998H422.528ZM422.528 41V41.5H426.229V41V40.5H422.528V41ZM426.229 41H426.729V38.8359H426.229H425.729V41H426.229ZM426.229 38.8359L426.582 39.1894L428.117 37.6532L427.764 37.2998L427.41 36.9464L425.875 38.4825L426.229 38.8359ZM427.764 37.2998V37.7998H441.028V37.2998V36.7998H427.764V37.2998ZM441.028 37.2998H441.528V29.9004H441.028H440.528V37.2998H441.028ZM441.028 29.9004L441.382 29.5468L437.682 25.8466L437.328 26.2002L436.975 26.5537L440.675 30.2539L441.028 29.9004ZM437.328 26.2002V25.7002H422.528V26.2002V26.7002H437.328V26.2002ZM453.971 26.2002L453.617 25.8466L442.518 36.9463L442.871 37.2998L443.225 37.6534L454.324 26.5537L453.971 26.2002ZM442.871 37.2998H442.371V41H442.871H443.371V37.2998H442.871ZM442.871 41V41.5H454.434V41V40.5H442.871V41ZM454.434 41L454.787 41.3536L458.024 38.1162L457.671 37.7627L457.317 37.4091L454.08 40.6464L454.434 41ZM457.671 37.7627H457.171V41H457.671H458.171V37.7627H457.671ZM457.671 41V41.5H461.371V41V40.5H457.671V41ZM461.371 41H461.871V26.2002H461.371H460.871V41H461.371ZM461.371 26.2002V25.7002H453.971V26.2002V26.7002H461.371V26.2002ZM466.914 26.2002L466.561 25.8466L462.86 29.5468L463.214 29.9004L463.567 30.2539L467.268 26.5537L466.914 26.2002ZM463.214 29.9004H462.714V41H463.214H463.714V29.9004H463.214ZM463.214 41V41.5H466.914V41V40.5H463.214V41ZM466.914 41H467.414V35.4502H466.914H466.414V41H466.914ZM466.914 35.4502V35.9502H476.479V35.4502V34.9502H466.914V35.4502ZM476.479 35.4502L476.125 35.8037L477.66 37.3389L478.014 36.9854L478.367 36.6318L476.832 35.0966L476.479 35.4502ZM478.014 36.9854H477.514V41H478.014H478.514V36.9854H478.014ZM478.014 41V41.5H481.714V41V40.5H478.014V41ZM481.714 41H482.214V35.4502H481.714H481.214V41H481.714ZM481.714 35.4502L482.067 35.0966L478.83 31.8593L478.477 32.2129L478.123 32.5664L481.36 35.8037L481.714 35.4502ZM478.477 32.2129V32.7129H481.714V32.2129V31.7129H478.477V32.2129ZM481.714 32.2129H482.214V26.2002H481.714H481.214V32.2129H481.714ZM481.714 26.2002V25.7002H466.914V26.2002V26.7002H481.714V26.2002ZM483.557 26.2002H483.057V29.9004H483.557H484.057V26.2002H483.557ZM483.557 29.9004V30.4004H489.421V29.9004V29.4004H483.557V29.9004ZM489.421 29.9004L489.067 30.2539L490.603 31.7891L490.956 31.4355L491.31 31.082L489.774 29.5468L489.421 29.9004ZM490.956 31.4355H490.456V41H490.956H491.456V31.4355H490.956ZM490.956 41V41.5H494.656V41V40.5H490.956V41ZM494.656 41H495.156V29.9004H494.656H494.156V41H494.656ZM494.656 29.9004V30.4004H502.057V29.9004V29.4004H494.656V29.9004ZM502.057 29.9004H502.557V26.2002H502.057H501.557V29.9004H502.057ZM502.057 26.2002V25.7002H494.194V26.2002V26.7002H502.057V26.2002ZM494.194 26.2002H493.694V29.4375H494.194H494.694V26.2002H494.194ZM494.194 29.4375L494.548 29.0839L491.31 25.8466L490.956 26.2002L490.603 26.5538L493.841 29.7911L494.194 29.4375ZM490.956 26.2002V25.7002H483.557V26.2002V26.7002H490.956V26.2002ZM503.899 26.2002H503.399V41H503.899H504.399V26.2002H503.899ZM503.899 41V41.5H507.6V41V40.5H503.899V41ZM507.6 41H508.1V29.9004H507.6H507.1V41H507.6ZM507.6 29.9004V30.4004H509.764V29.9004V29.4004H507.6V29.9004ZM509.764 29.9004L509.41 30.2539L510.945 31.7891L511.299 31.4355L511.652 31.082L510.117 29.5468L509.764 29.9004ZM511.299 31.4355H510.799V37.2998H511.299H511.799V31.4355H511.299ZM511.299 37.2998L510.945 37.6534L514.645 41.3536L514.999 41L515.353 40.6464L511.652 36.9463L511.299 37.2998ZM514.999 41V41.5H522.399V41V40.5H514.999V41ZM522.399 41H522.899V26.2002H522.399H521.899V41H522.399ZM522.399 26.2002V25.7002H518.699V26.2002V26.7002H522.399V26.2002ZM518.699 26.2002H518.199V37.2998H518.699H519.199V26.2002H518.699ZM518.699 37.2998V36.7998H516.534V37.2998V37.7998H518.699V37.2998ZM516.534 37.2998L516.888 36.9463L515.353 35.4111L514.999 35.7646L514.645 36.1182L516.181 37.6534L516.534 37.2998ZM514.999 35.7646H515.499V29.9004H514.999H514.499V35.7646H514.999ZM514.999 29.9004L515.353 29.5468L511.652 25.8466L511.299 26.2002L510.945 26.5537L514.645 30.2539L514.999 29.9004ZM511.299 26.2002V25.7002H503.899V26.2002V26.7002H511.299V26.2002ZM524.242 26.2002H523.742V32.2129H524.242H524.742V26.2002H524.242ZM524.242 32.2129V32.7129H527.479V32.2129V31.7129H524.242V32.2129ZM527.479 32.2129L527.126 31.8593L523.889 35.0966L524.242 35.4502L524.596 35.8037L527.833 32.5664L527.479 32.2129ZM524.242 35.4502H523.742V41H524.242H524.742V35.4502H524.242ZM524.242 41V41.5H542.742V41V40.5H524.242V41ZM542.742 41H543.242V37.2998H542.742H542.242V41H542.742ZM542.742 37.2998V36.7998H527.942V37.2998V37.7998H542.742V37.2998ZM527.942 37.2998H528.442V36.9854H527.942H527.442V37.2998H527.942ZM527.942 36.9854L528.296 37.3389L529.831 35.8037L529.478 35.4502L529.124 35.0966L527.589 36.6318L527.942 36.9854ZM529.478 35.4502V35.9502H542.742V35.4502V34.9502H529.478V35.4502ZM542.742 35.4502H543.242V31.75H542.742H542.242V35.4502H542.742ZM542.742 31.75V31.25H527.942V31.75V32.25H542.742V31.75ZM527.942 31.75H528.442V29.9004H527.942H527.442V31.75H527.942ZM527.942 29.9004V30.4004H542.742V29.9004V29.4004H527.942V29.9004ZM542.742 29.9004H543.242V26.2002H542.742H542.242V29.9004H542.742ZM542.742 26.2002V25.7002H524.242V26.2002V26.7002H542.742V26.2002ZM548.285 26.2002L547.932 25.8466L544.231 29.5468L544.585 29.9004L544.939 30.2539L548.639 26.5537L548.285 26.2002ZM544.585 29.9004H544.085V41H544.585H545.085V29.9004H544.585ZM544.585 41V41.5H548.285V41V40.5H544.585V41ZM548.285 41H548.785V35.4502H548.285H547.785V41H548.285ZM548.285 35.4502V35.9502H557.85V35.4502V34.9502H548.285V35.4502ZM557.85 35.4502L557.496 35.8037L559.031 37.3389L559.385 36.9854L559.738 36.6318L558.203 35.0966L557.85 35.4502ZM559.385 36.9854H558.885V41H559.385H559.885V36.9854H559.385ZM559.385 41V41.5H563.085V41V40.5H559.385V41ZM563.085 41H563.585V35.4502H563.085H562.585V41H563.085ZM563.085 35.4502L563.439 35.0966L560.201 31.8593L559.848 32.2129L559.494 32.5664L562.731 35.8037L563.085 35.4502ZM559.848 32.2129V32.7129H563.085V32.2129V31.7129H559.848V32.2129ZM563.085 32.2129H563.585V26.2002H563.085H562.585V32.2129H563.085ZM563.085 26.2002V25.7002H548.285V26.2002V26.7002H563.085V26.2002ZM309.725 29.9004H309.225V35.7646H309.725H310.225V29.9004H309.725ZM309.725 35.7646L309.371 35.4111L307.836 36.9463L308.189 37.2998L308.543 37.6534L310.078 36.1182L309.725 35.7646ZM308.189 37.2998V36.7998H298.625V37.2998V37.7998H308.189V37.2998ZM298.625 37.2998H299.125V29.9004H298.625H298.125V37.2998H298.625ZM298.625 29.9004V30.4004H309.725V29.9004V29.4004H298.625V29.9004ZM330.067 29.9004H329.567V35.7646H330.067H330.567V29.9004H330.067ZM330.067 35.7646L329.714 35.4111L328.179 36.9463L328.532 37.2998L328.886 37.6534L330.421 36.1182L330.067 35.7646ZM328.532 37.2998V36.7998H318.968V37.2998V37.7998H328.532V37.2998ZM318.968 37.2998H319.468V31.4355H318.968H318.468V37.2998H318.968ZM318.968 31.4355L319.321 31.7891L320.856 30.2539L320.503 29.9004L320.149 29.5468L318.614 31.082L318.968 31.4355ZM320.503 29.9004V30.4004H330.067V29.9004V29.4004H320.503V29.9004ZM370.753 29.9004H370.253V36.8379H370.753H371.253V29.9004H370.753ZM370.753 36.8379L371.107 36.4844L368.961 34.3379L368.607 34.6914L368.254 35.0449L370.399 37.1914L370.753 36.8379ZM368.607 34.6914L368.255 34.3366L365.628 36.945L365.98 37.2998L366.333 37.6546L368.96 35.0462L368.607 34.6914ZM365.98 37.2998V36.7998H361.188V37.2998V37.7998H365.98V37.2998ZM361.188 37.2998L361.542 37.6534L368.942 30.254L368.589 29.9004L368.235 29.5468L360.835 36.9462L361.188 37.2998ZM368.589 29.9004V30.4004H370.753V29.9004V29.4004H368.589V29.9004ZM457.671 29.9004H457.171V36.8379H457.671H458.171V29.9004H457.671ZM457.671 36.8379L458.024 36.4843L455.878 34.3379L455.524 34.6914L455.171 35.045L457.317 37.1914L457.671 36.8379ZM455.524 34.6914L455.172 34.3366L452.545 36.945L452.897 37.2998L453.25 37.6546L455.877 35.0462L455.524 34.6914ZM452.897 37.2998V36.7998H448.106V37.2998V37.7998H452.897V37.2998ZM448.106 37.2998L448.46 37.6534L455.859 30.2539L455.506 29.9004L455.152 29.5468L447.753 36.9463L448.106 37.2998ZM455.506 29.9004V30.4004H457.671V29.9004V29.4004H455.506V29.9004ZM435.793 29.9004L435.439 30.2539L436.975 31.7891L437.328 31.4355L437.682 31.082L436.147 29.5468L435.793 29.9004ZM437.328 31.4355H436.828V33.5996H437.328H437.828V31.4355H437.328ZM437.328 33.5996V33.0996H426.229V33.5996V34.0996H437.328V33.5996ZM426.229 33.5996H426.729V29.9004H426.229H425.729V33.5996H426.229ZM426.229 29.9004V30.4004H435.793V29.9004V29.4004H426.229V29.9004ZM478.014 29.9004H477.514V31.75H478.014H478.514V29.9004H478.014ZM478.014 31.75V31.25H466.914V31.75V32.25H478.014V31.75ZM466.914 31.75H467.414V31.4355H466.914H466.414V31.75H466.914ZM466.914 31.4355L467.268 31.7891L468.803 30.2539L468.449 29.9004L468.096 29.5468L466.561 31.082L466.914 31.4355ZM468.449 29.9004V30.4004H478.014V29.9004V29.4004H468.449V29.9004ZM559.385 29.9004H558.885V31.75H559.385H559.885V29.9004H559.385ZM559.385 31.75V31.25H548.285V31.75V32.25H559.385V31.75ZM548.285 31.75H548.785V31.4355H548.285H547.785V31.75H548.285ZM548.285 31.4355L548.639 31.7891L550.174 30.2539L549.82 29.9004L549.467 29.5468L547.932 31.082L548.285 31.4355ZM549.82 29.9004V30.4004H559.385V29.9004V29.4004H549.82V29.9004Z" fill="url(#paint5_linear_1280_1847)" mask="url(#path-5-inside-3_1280_1847)"/>
<defs>
<linearGradient id="paint0_linear_1280_1847" x1="429.5" y1="23" x2="429.5" y2="326" gradientUnits="userSpaceOnUse">
<stop stop-color="#7C4721" stop-opacity="0.25"/>
<stop offset="0.709504" stop-color="#7C4721" stop-opacity="0.108099"/>
<stop offset="1" stop-color="#7C4721" stop-opacity="0.05"/>
</linearGradient>
<linearGradient id="paint1_linear_1280_1847" x1="429.5" y1="23" x2="429.5" y2="326" gradientUnits="userSpaceOnUse">
<stop offset="0.615385" stop-color="#B37E59"/>
<stop offset="1" stop-color="#7C4721"/>
</linearGradient>
<linearGradient id="paint2_linear_1280_1847" x1="429.5" y1="23" x2="429.5" y2="326" gradientUnits="userSpaceOnUse">
<stop stop-color="#7C4721" stop-opacity="0.25"/>
<stop offset="0.709504" stop-color="#7C4721" stop-opacity="0.108099"/>
<stop offset="1" stop-color="#7C4721" stop-opacity="0.05"/>
</linearGradient>
<linearGradient id="paint3_linear_1280_1847" x1="429.5" y1="23" x2="429.5" y2="326" gradientUnits="userSpaceOnUse">
<stop offset="0.615385" stop-color="#B37E59"/>
<stop offset="1" stop-color="#7C4721"/>
</linearGradient>
<linearGradient id="paint4_linear_1280_1847" x1="429.5" y1="0" x2="429.5" y2="56.5" gradientUnits="userSpaceOnUse">
<stop stop-color="#E6BB9C"/>
<stop offset="0.423077" stop-color="#BC8A67"/>
<stop offset="1" stop-color="#7C4721"/>
</linearGradient>
<linearGradient id="paint5_linear_1280_1847" x1="429.5" y1="0" x2="429.5" y2="56.5" gradientUnits="userSpaceOnUse">
<stop offset="0.615385" stop-color="#B37E59"/>
<stop offset="1" stop-color="#7C4721"/>
</linearGradient>
</defs>
</svg>
