<svg width="859" height="327" viewBox="0 0 859 327" fill="none" xmlns="http://www.w3.org/2000/svg">
<g opacity="0.89">
<mask id="path-1-inside-1_1311_187" fill="white">
<path d="M859 287.496L671.5 286.5L635.5 327H65.5L29.5 286.5L0 286.656V24H234.5V64H604.5V24H859V287.496Z"/>
</mask>
<path d="M859 287.496L671.5 286.5L635.5 327H65.5L29.5 286.5L0 286.656V24H234.5V64H604.5V24H859V287.496Z" fill="url(#paint0_linear_1311_187)" fill-opacity="0.25"/>
<path d="M859 287.496L858.987 289.996L861.5 290.009V287.496H859ZM671.5 286.5L671.513 284L670.383 283.994L669.631 284.839L671.5 286.5ZM635.5 327V329.5H636.623L637.369 328.661L635.5 327ZM65.5 327L63.6315 328.661L64.3773 329.5H65.5V327ZM29.5 286.5L31.3685 284.839L30.6174 283.994L29.4868 284L29.5 286.5ZM0 286.656H-2.5V289.17L0.0132413 289.156L0 286.656ZM0 24V21.5H-2.5V24H0ZM234.5 24H237V21.5H234.5V24ZM234.5 64H232V66.5H234.5V64ZM604.5 64V66.5H607V64H604.5ZM604.5 24V21.5H602V24H604.5ZM859 24H861.5V21.5H859V24ZM859 287.496L859.013 284.996L671.513 284L671.5 286.5L671.487 289L858.987 289.996L859 287.496ZM671.5 286.5L669.631 284.839L633.631 325.339L635.5 327L637.369 328.661L673.369 288.161L671.5 286.5ZM635.5 327V324.5H65.5V327V329.5H635.5V327ZM65.5 327L67.3685 325.339L31.3685 284.839L29.5 286.5L27.6315 288.161L63.6315 328.661L65.5 327ZM29.5 286.5L29.4868 284L-0.0132413 284.156L0 286.656L0.0132413 289.156L29.5132 289L29.5 286.5ZM0 286.656H2.5V24H0H-2.5V286.656H0ZM0 24V26.5H234.5V24V21.5H0V24ZM234.5 24H232V64H234.5H237V24H234.5ZM234.5 64V66.5H604.5V64V61.5H234.5V64ZM604.5 64H607V24H604.5H602V64H604.5ZM604.5 24V26.5H859V24V21.5H604.5V24ZM859 24H856.5V287.496H859H861.5V24H859Z" fill="url(#paint1_linear_1311_187)" mask="url(#path-1-inside-1_1311_187)"/>
<path d="M593.701 23L594 22.749V56.5H245V22.749L272.19 0H566.212L593.701 23ZM255.096 26.2002V41H258.796V35.4502H268.36L269.896 36.9854V41H273.596V35.4502L269.896 31.75H263.569L265.419 29.9004H273.596V26.2002H263.884L260.775 29.3076L263.236 31.75H258.796V26.2002H255.096ZM275.438 26.2002V41H279.139V29.9004H281.303L282.839 31.4355V37.2998L286.539 41H293.938V26.2002H290.238V37.2998H288.074L286.539 35.7646V29.9004L282.839 26.2002H275.438ZM299.481 26.2002L295.781 29.9004V41H310.581L314.281 37.2998V26.2002H299.481ZM316.124 26.2002V41H323.524L326.762 37.7627V41H330.924L334.624 37.2998V26.2002H330.924V35.7646L329.389 37.2998H327.225V26.2002H323.524V35.7646L321.988 37.2998H319.824V26.2002H316.124ZM336.467 26.2002V33.5996L343.867 41H354.967V37.2998H345.402L342.775 34.6914L340.167 32.0645V26.2002H336.467ZM356.81 26.2002V32.2129H360.047L356.81 35.4502V41H375.31V37.2998H360.51V36.9854L362.045 35.4502H375.31V31.75H360.51V29.9004H375.31V26.2002H356.81ZM377.152 26.2002V41H391.952L395.652 37.2998V26.2002H377.152ZM401.195 26.2002L397.495 29.9004V41H415.995V35.4502L412.295 31.75H403.045V35.4502H410.76L412.295 36.9854V37.2998H401.195V31.4355L402.73 29.9004H415.995V26.2002H401.195ZM417.838 26.2002V32.2129H421.075L417.838 35.4502V41H436.338V37.2998H421.538V36.9854L423.073 35.4502H436.338V31.75H421.538V29.9004H436.338V26.2002H417.838ZM443.728 26.2002V34.0625H446.965L443.728 37.2998V41H447.428V38.8359L448.963 37.2998H462.228V29.9004L458.527 26.2002H443.728ZM475.17 26.2002L464.07 37.2998V41H475.633L478.87 37.7627V41H482.57V26.2002H475.17ZM488.113 26.2002L484.413 29.9004V41H488.113V35.4502H497.678L499.213 36.9854V41H502.913V35.4502L499.676 32.2129H502.913V26.2002H488.113ZM504.756 26.2002V29.9004H510.62L512.155 31.4355V41H515.855V29.9004H523.256V26.2002H515.394V29.4375L512.155 26.2002H504.756ZM525.099 26.2002V41H528.799V29.9004H530.963L532.498 31.4355V37.2998L536.198 41H543.599V26.2002H539.898V37.2998H537.733L536.198 35.7646V29.9004L532.498 26.2002H525.099ZM545.441 26.2002V32.2129H548.679L545.441 35.4502V41H563.941V37.2998H549.142V36.9854L550.677 35.4502H563.941V31.75H549.142V29.9004H563.941V26.2002H545.441ZM569.484 26.2002L565.784 29.9004V41H569.484V35.4502H579.049L580.584 36.9854V41H584.284V35.4502L581.047 32.2129H584.284V26.2002H569.484ZM310.581 29.9004V35.7646L309.046 37.2998H299.481V31.4355L301.017 29.9004H310.581ZM391.952 29.9004V35.7646L390.417 37.2998H380.853V29.9004H391.952ZM478.87 29.9004V36.8379L476.724 34.6914L474.097 37.2998H469.306L476.705 29.9004H478.87ZM456.992 29.9004L458.527 31.4355V33.5996H447.428V29.9004H456.992ZM499.213 29.9004V31.75H488.113V31.4355L489.648 29.9004H499.213ZM580.584 29.9004V31.75H569.484V31.4355L571.02 29.9004H580.584Z" fill="url(#paint2_linear_1311_187)"/>
</g>
<defs>
<linearGradient id="paint0_linear_1311_187" x1="429.5" y1="24" x2="429.5" y2="327" gradientUnits="userSpaceOnUse">
<stop stop-color="#FBC7D4" stop-opacity="0.66"/>
<stop offset="1" stop-color="#ACA6A6" stop-opacity="0.05"/>
</linearGradient>
<linearGradient id="paint1_linear_1311_187" x1="429.5" y1="24" x2="429.5" y2="327" gradientUnits="userSpaceOnUse">
<stop offset="0.615385" stop-color="#A07A84"/>
<stop offset="1" stop-color="#FBC7D4"/>
</linearGradient>
<linearGradient id="paint2_linear_1311_187" x1="431.797" y1="0" x2="431.797" y2="56.5" gradientUnits="userSpaceOnUse">
<stop stop-color="#9796F0"/>
<stop offset="0.626803" stop-color="#FBC7D4" stop-opacity="0.791346"/>
</linearGradient>
</defs>
</svg>
